<svg width="761" height="215" viewBox="0 0 761 215" fill="none" xmlns="http://www.w3.org/2000/svg">
<path d="M181.629 95.3009C144.843 74.7218 84.1644 72.83 49.0471 82.8697C43.4063 84.4813 37.4436 81.4833 35.7357 76.1708C34.0268 70.8554 37.2064 65.2415 42.8493 63.627C83.1628 52.1008 150.175 54.3267 192.524 78.0068C197.598 80.844 199.26 87.0144 196.254 91.7839C193.245 96.5621 186.688 98.1381 181.628 95.3009M180.424 125.78C177.843 129.725 172.367 130.962 168.185 128.54C137.518 110.783 90.7507 105.638 54.4672 116.013C49.7626 117.351 44.7922 114.854 43.3634 110.429C42.6822 108.302 42.9243 106.007 44.0365 104.048C45.1487 102.088 47.0403 100.625 49.2965 99.977C90.7445 88.1283 142.272 93.8663 177.497 114.258C181.679 116.684 182.996 121.844 180.424 125.78ZM166.46 155.052C165.974 155.804 165.335 156.458 164.58 156.977C163.825 157.497 162.969 157.87 162.06 158.078C161.152 158.285 160.209 158.321 159.286 158.184C158.362 158.048 157.477 157.741 156.679 157.282C129.881 141.853 96.1492 138.369 56.4244 146.916C55.5142 147.112 54.5719 147.138 53.6513 146.991C52.7307 146.844 51.8499 146.527 51.0592 146.059C50.2685 145.592 49.5833 144.982 49.0429 144.264C48.5025 143.547 48.1174 142.737 47.9096 141.879C47.7003 141.022 47.6727 140.133 47.8283 139.266C47.984 138.398 48.3198 137.568 48.8166 136.822C49.3135 136.077 49.9615 135.431 50.7236 134.922C51.4858 134.413 52.347 134.051 53.2581 133.856C96.7298 124.496 134.019 128.524 164.1 145.838C164.897 146.297 165.591 146.899 166.141 147.611C166.691 148.322 167.087 149.129 167.306 149.984C167.526 150.84 167.564 151.728 167.419 152.597C167.274 153.467 166.947 154.301 166.46 155.052ZM114.12 0C51.0953 0 0 48.1284 0 107.498C0 166.873 51.0953 215 114.121 215C177.15 215 228.245 166.873 228.245 107.498C228.245 48.1294 177.15 0 114.12 0ZM310.487 99.2414C290.782 94.8147 287.275 91.7078 287.275 85.1803C287.275 79.0138 293.438 74.8653 302.604 74.8653C311.489 74.8653 320.299 78.0164 329.536 84.5045C329.816 84.7009 330.166 84.7788 330.511 84.7278C330.681 84.7039 330.845 84.6477 330.991 84.5624C331.137 84.4772 331.264 84.3648 331.362 84.232L340.983 71.4561C341.379 70.9305 341.271 70.2046 340.738 69.8031C329.744 61.4945 317.365 57.4547 302.896 57.4547C281.62 57.4547 266.759 69.4796 266.759 86.689C266.759 105.142 279.579 111.675 301.732 116.719C320.587 120.811 323.769 124.237 323.769 130.365C323.769 137.154 317.336 141.375 306.98 141.375C295.479 141.375 286.097 137.726 275.602 129.165C275.337 128.959 274.998 128.855 274.655 128.874C274.307 128.901 273.991 129.053 273.77 129.304L262.982 141.397C262.529 141.899 262.586 142.648 263.11 143.082C275.32 153.351 290.338 158.775 306.542 158.775C329.47 158.775 344.282 146.974 344.282 128.712C344.282 113.277 334.494 104.74 310.487 99.2414ZM412.794 119.927C412.794 132.96 404.27 142.055 392.066 142.055C380.003 142.055 370.902 132.547 370.902 119.927C370.902 107.308 380.003 97.7992 392.067 97.7992C404.075 97.7992 412.794 107.103 412.794 119.927ZM396.151 80.9355C386.214 80.9355 378.064 84.6229 371.343 92.1767V83.6736C371.343 83.0025 370.764 82.4557 370.052 82.4557H352.41C351.697 82.4557 351.12 83.0025 351.12 83.6736V178.155C351.12 178.826 351.697 179.373 352.41 179.373H370.051C370.764 179.373 371.343 178.826 371.343 178.155V148.332C378.065 155.439 386.217 158.911 396.151 158.911C414.615 158.911 433.307 145.521 433.307 119.927C433.307 94.3275 414.615 80.9355 396.151 80.9355ZM481.219 142.191C468.571 142.191 459.036 132.619 459.036 119.927C459.036 107.181 468.241 97.933 480.927 97.933C493.656 97.933 503.256 107.505 503.256 120.206C503.256 132.949 493.988 142.191 481.219 142.191ZM481.219 80.9355C457.44 80.9355 438.812 98.1834 438.812 120.207C438.812 141.989 457.312 159.055 480.927 159.055C504.79 159.055 523.477 141.866 523.477 119.927C523.477 98.063 504.919 80.9355 481.219 80.9355ZM574.255 82.4557H554.841V63.7569C554.841 63.0859 554.267 62.5391 553.553 62.5391H535.912C535.199 62.5391 534.618 63.0859 534.618 63.7569V82.4557H526.135C525.425 82.4557 524.85 83.0025 524.85 83.6736V97.9562C524.85 98.6272 525.425 99.174 526.135 99.174H534.618V136.133C534.618 151.068 542.51 158.642 558.074 158.642C564.403 158.642 569.654 157.411 574.603 154.768C575.004 154.556 575.254 154.148 575.254 153.714V140.112C575.254 139.904 575.198 139.7 575.091 139.518C574.984 139.337 574.83 139.184 574.642 139.075C574.455 138.966 574.241 138.903 574.021 138.894C573.801 138.884 573.582 138.928 573.385 139.021C569.986 140.632 566.7 141.375 563.028 141.375C557.368 141.375 554.841 138.954 554.841 133.528V99.174H574.256C574.97 99.174 575.543 98.6272 575.543 97.9562V83.6736C575.543 83.0025 574.97 82.4557 574.256 82.4557M641.899 82.5279V80.2317C641.899 73.4751 644.649 70.4626 650.817 70.4626C654.496 70.4626 657.45 71.151 660.758 72.1907C660.953 72.2515 661.159 72.2679 661.362 72.2386C661.564 72.2092 661.756 72.1349 661.922 72.0218C662.087 71.9088 662.222 71.7602 662.315 71.5883C662.408 71.4165 662.456 71.2263 662.455 71.0335V57.0272C662.456 56.7666 662.368 56.5125 662.204 56.3027C662.04 56.0929 661.808 55.9384 661.543 55.8623C658.048 54.8822 653.575 53.8761 646.879 53.8761C630.582 53.8761 621.969 62.5217 621.969 78.8656V82.3825H613.494C613.151 82.383 612.822 82.5113 612.579 82.7393C612.337 82.9673 612.199 83.2765 612.198 83.5995V97.9562C612.198 98.6262 612.78 99.175 613.494 99.175H621.969V156.182C621.969 156.853 622.544 157.4 623.256 157.4H640.897C641.61 157.4 642.19 156.853 642.19 156.182V99.174H658.664L683.899 156.166C681.033 162.154 678.216 163.345 674.371 163.345C671.262 163.345 667.99 162.471 664.642 160.746C664.486 160.667 664.315 160.618 664.138 160.603C663.962 160.587 663.784 160.605 663.615 160.656C663.278 160.768 662.995 161.004 662.852 161.312L656.872 173.67C656.735 173.949 656.715 174.267 656.818 174.559C656.921 174.851 657.139 175.096 657.426 175.242C663.669 178.427 669.306 179.786 676.269 179.786C689.298 179.786 696.498 174.07 702.847 158.692L733.456 84.1858C733.532 84.0018 733.56 83.8031 733.536 83.6068C733.513 83.4106 733.439 83.2227 733.321 83.0594C733.203 82.8961 733.044 82.7623 732.859 82.6695C732.674 82.5768 732.468 82.5278 732.258 82.5269H713.892C713.623 82.5271 713.361 82.6057 713.142 82.7519C712.923 82.8982 712.758 83.1048 712.668 83.3434L693.853 133.968L673.244 83.3097C673.151 83.0793 672.986 82.881 672.771 82.7412C672.556 82.6013 672.3 82.5266 672.039 82.5269L641.899 82.5279ZM602.684 82.4557H585.04C584.329 82.4557 583.748 83.0025 583.748 83.6736V156.181C583.748 156.852 584.329 157.399 585.04 157.399H602.684C603.396 157.399 603.977 156.852 603.977 156.181V83.6736C603.977 83.0025 603.395 82.4557 602.684 82.4557ZM593.953 49.4407C586.963 49.4407 581.291 54.7705 581.291 61.3539C581.291 67.9421 586.963 73.2787 593.953 73.2787C600.94 73.2787 606.606 67.9421 606.606 61.3539C606.606 54.7705 600.94 49.4407 593.953 49.4407ZM749.242 89.6677H746.009V93.5506H749.242C750.855 93.5506 751.818 92.8073 751.818 91.6087C751.818 90.3446 750.855 89.6677 749.242 89.6677ZM751.336 95.2065L754.849 99.8383H751.888L748.727 95.5907H746.008V99.8383H743.531V87.5631H749.341C752.37 87.5631 754.362 89.0217 754.362 91.4777C754.362 93.4899 753.127 94.7203 751.336 95.2065ZM748.584 83.4762C742.225 83.4762 737.412 88.239 737.412 94.0704C737.412 99.899 742.19 104.598 748.52 104.598C754.877 104.598 759.696 99.8384 759.696 94.004C759.696 88.1745 754.913 83.4762 748.584 83.4762ZM748.52 105.768C741.537 105.768 736.103 100.485 736.103 94.0704C736.103 87.6565 741.607 82.3132 748.583 82.3132C755.567 82.3132 761 87.5949 761 94.004C761 100.42 755.499 105.768 748.52 105.768Z" fill="#191414"/>
</svg>
